<?xml version="1.0" encoding="UTF-8" standalone="no"?>
<svg
   version="1.0"
   width="640pt"
   height="628pt"
   viewBox="0 0 640 628"
   preserveAspectRatio="xMidYMid meet"
   id="svg62"
   sodipodi:docname="84302cce84d4f1dcf9d8b241604f0d85.svg"
   xmlns:inkscape="http://www.inkscape.org/namespaces/inkscape"
   xmlns:sodipodi="http://sodipodi.sourceforge.net/DTD/sodipodi-0.dtd"
   xmlns="http://www.w3.org/2000/svg"
   xmlns:svg="http://www.w3.org/2000/svg">
  <defs
     id="defs66" />
  <sodipodi:namedview
     id="namedview64"
     pagecolor="#ffffff"
     bordercolor="#666666"
     borderopacity="1.0"
     inkscape:pageshadow="2"
     inkscape:pageopacity="0.0"
     inkscape:pagecheckerboard="0"
     inkscape:document-units="pt" />
  <metadata
     id="metadata2">
Created by potrace 1.16, written by Peter Selinger 2001-2019
</metadata>
  <g
     transform="matrix(0.1,0,0,-0.1,0,628)"
     fill="#000000"
     stroke="none"
     id="g60">
    <path
       d="M 0,3140 V 0 H 3200 6400 V 3140 6280 H 3200 0 Z m 1877,2469 c 152,-20 321,-128 409,-260 48,-73 94,-174 95,-211 0,-23 1,-23 11,2 87,202 149,286 269,366 185,123 395,138 586,43 177,-89 306,-267 325,-450 15,-138 -1,-253 -47,-347 -50,-100 -151,-202 -254,-256 -85,-44 -82,-50 26,-59 93,-7 147,-32 201,-91 64,-70 82,-118 89,-241 l 6,-105 h 173 c 162,0 177,2 241,26 37,14 163,57 278,96 397,131 441,146 625,217 102,39 305,117 450,175 l 265,105 7,-1077 c 4,-592 5,-1078 2,-1081 -3,-3 -24,2 -47,11 -319,123 -434,167 -555,214 -79,31 -144,55 -146,53 -2,-2 -6,-136 -10,-297 l -7,-292 h 196 196 l 30,35 c 17,19 48,40 68,46 32,10 43,8 79,-10 105,-53 94,-199 -18,-232 -50,-15 -82,-6 -129,36 l -38,35 -234,2 -234,3 v 356 357 l -115,45 -115,46 -6,-107 c -4,-59 -7,-285 -9,-502 -1,-217 -5,-406 -9,-420 -10,-36 -48,-39 -61,-5 -6,15 -11,226 -12,525 -3,456 -2,501 14,516 15,16 11,19 -65,45 -45,16 -84,29 -87,29 -3,0 -4,-343 -2,-762 l 3,-763 29,-26 c 85,-78 46,-224 -65,-245 -48,-9 -91,11 -121,55 -41,61 -28,136 37,207 18,19 19,52 21,792 l 3,772 -35,14 c -19,7 -87,30 -151,50 -114,35 -120,36 -281,36 h -165 l -6,-109 c -7,-127 -16,-153 -65,-204 -64,-67 -100,-79 -247,-86 l -130,-6 -3,-180 -2,-180 -41,-41 -40,-41 61,-51 c 52,-44 65,-50 90,-45 19,3 30,1 30,-6 0,-6 -7,-11 -15,-11 -28,0 -15,-23 45,-83 39,-39 65,-57 75,-54 8,4 15,2 15,-2 0,-5 -5,-11 -11,-13 -6,-2 8,-28 31,-57 l 42,-53 5,-192 c 2,-105 0,-267 -5,-361 l -9,-170 40,-37 40,-38 h 116 116 l 28,35 c 78,98 237,49 237,-73 0,-61 -26,-103 -78,-126 -57,-26 -105,-15 -155,35 l -39,39 h -114 -113 l -16,-29 c -23,-46 -62,-71 -109,-71 -36,0 -48,6 -81,40 l -39,40 h -157 c -134,0 -158,2 -163,16 -3,9 -6,297 -6,640 v 624 h -54 -54 l -7,-405 c -4,-222 -4,-556 0,-741 l 8,-337 43,-42 c 42,-39 44,-45 44,-97 0,-92 -56,-153 -133,-144 -74,9 -120,64 -120,144 0,32 8,54 32,88 l 32,46 -7,744 -7,744 h -79 -78 v -589 -589 l 24,-15 c 13,-9 32,-36 41,-61 22,-57 10,-97 -45,-151 l -39,-38 -47,13 c -62,18 -102,53 -110,97 -9,49 11,109 46,135 l 30,22 v 572 c 0,315 -3,579 -6,588 -5,12 -20,16 -59,16 h -52 l -7,-432 -7,-433 -26,-27 -27,-28 h -237 -237 l -12,-30 c -20,-48 -55,-70 -113,-70 -44,0 -53,4 -88,39 -38,37 -45,58 -40,116 3,33 75,95 111,95 40,0 100,-25 117,-50 13,-19 26,-20 216,-20 111,0 212,3 225,6 l 22,6 -2,412 -3,411 -39,-2 c -27,-2 -51,-13 -81,-37 -65,-54 -75,-84 -75,-230 0,-124 0,-127 30,-168 25,-34 30,-51 30,-96 0,-51 -3,-57 -45,-100 -44,-44 -46,-45 -96,-39 -49,6 -81,24 -136,76 -27,26 -28,34 -8,51 8,7 15,24 15,37 0,25 50,82 99,114 23,14 23,16 15,124 l -9,110 -30,6 c -16,4 -103,7 -191,8 l -162,1 -27,-36 c -72,-94 -204,-73 -237,38 -12,42 -38,73 -103,124 l -40,31 -3,465 -3,465 -76,7 c -42,3 -123,6 -180,6 H 760 v -63 c 0,-35 -3,-98 -6,-139 l -7,-75 36,-35 c 96,-96 55,-238 -68,-238 -67,0 -135,61 -135,120 0,33 29,93 56,115 24,19 25,25 33,204 6,138 12,185 22,192 8,5 153,9 323,9 h 309 l -7,398 c -10,549 -3,599 104,695 46,42 93,64 173,81 36,8 34,22 -6,35 -55,19 -182,107 -233,163 -88,98 -144,251 -144,393 0,162 51,279 174,400 62,62 100,90 166,123 128,63 182,71 327,51 z m 2143,-540 c 51,-29 75,-74 67,-129 -7,-52 -36,-85 -88,-98 -69,-18 -133,14 -159,79 -10,23 -10,39 0,75 12,42 19,49 64,70 63,29 69,29 116,3 z m 861,-148 c 34,-34 39,-44 39,-86 0,-34 -8,-62 -25,-92 -26,-43 -26,-43 -85,-43 -57,0 -59,1 -89,42 -25,33 -31,52 -31,91 0,44 4,54 39,88 54,54 98,54 152,0 z M 800,3982 c 16,-16 33,-47 39,-69 17,-62 -2,-108 -67,-160 l -53,-43 -59,46 c -88,69 -101,135 -42,205 31,38 54,48 110,48 35,1 49,-5 72,-27 z M 3996,2423 c -3,-4 12,-26 35,-49 35,-36 43,-51 46,-91 5,-46 3,-52 -36,-97 -42,-48 -53,-90 -30,-113 6,-6 8,-17 3,-24 -4,-7 -7,-101 -6,-209 l 2,-195 -103,-107 c -77,-79 -114,-109 -141,-117 -38,-10 -66,-6 -66,10 0,10 151,192 192,231 l 28,27 v 222 221 l -51,48 -52,48 5,56 c 5,64 21,86 81,111 23,9 49,21 57,25 18,11 46,13 36,3 z M 955,2061 c 3,-6 -1,-14 -9,-18 -12,-7 -5,-16 32,-43 26,-20 52,-46 59,-60 19,-40 5,-106 -30,-142 -29,-28 -35,-30 -89,-26 -67,5 -102,30 -119,87 -17,58 6,110 59,135 30,15 44,29 48,49 6,27 36,38 49,18 z m 4007,-386 c 43,-29 60,-75 48,-130 -11,-48 -35,-73 -83,-86 -56,-15 -101,-4 -131,32 -54,64 -43,140 28,191 47,34 78,33 138,-7 z"
       id="path4" />
    <path
       d="m 1698,5487 c -26,-8 -65,-26 -87,-40 -58,-39 -56,-68 11,-148 l 51,-62 124,6 c 141,6 143,7 209,103 44,64 38,81 -39,120 -63,32 -193,42 -269,21 z"
       id="path6" />
    <path
       d="m 2917,5490 c -53,-14 -113,-46 -130,-71 -21,-30 -6,-69 47,-117 49,-45 107,-62 209,-62 61,0 64,1 103,43 105,108 100,151 -18,193 -53,18 -163,26 -211,14 z"
       id="path8" />
    <path
       d="m 2591,5242 c -66,-69 -92,-227 -55,-336 18,-54 77,-116 108,-116 22,0 110,67 135,103 12,17 16,52 16,144 0,136 -3,143 -90,202 -66,46 -74,46 -114,3 z"
       id="path10" />
    <path
       d="m 1391,5241 c -41,-44 -66,-131 -66,-227 1,-71 5,-89 30,-139 17,-31 42,-64 57,-73 33,-19 49,-12 126,56 l 53,47 3,128 3,128 -36,28 c -40,31 -123,81 -135,81 -5,0 -20,-13 -35,-29 z"
       id="path12" />
    <path
       d="m 2078,5222 -63,-47 -3,-137 -3,-136 43,-37 c 24,-20 58,-44 76,-53 30,-15 36,-15 60,-1 15,8 38,35 52,59 48,87 37,272 -22,368 -29,47 -62,43 -140,-16 z"
       id="path14" />
    <path
       d="m 3283,5231 c -89,-71 -88,-68 -84,-199 l 3,-117 41,-43 c 56,-58 102,-85 131,-78 14,3 33,25 52,58 27,50 29,59 29,168 0,98 -4,122 -23,165 -45,98 -73,106 -149,46 z"
       id="path16" />
    <path
       d="m 1741,5153 c -128,-63 -71,-279 69,-260 53,7 86,32 111,84 19,40 20,49 9,86 -18,61 -68,107 -116,107 -22,0 -54,-8 -73,-17 z"
       id="path18" />
    <path
       d="m 2900,5144 c -10,-25 -14,-254 -6,-254 27,0 172,57 196,76 60,51 29,129 -71,179 -65,33 -106,33 -119,-1 z"
       id="path20" />
    <path
       d="m 2390,4891 c 0,-7 -17,-50 -38,-95 -65,-137 -150,-223 -297,-298 -77,-41 -79,-42 -50,-49 43,-10 797,-10 813,-1 8,6 -21,25 -84,56 -140,70 -224,154 -292,296 -29,58 -52,99 -52,91 z"
       id="path22" />
    <path
       d="m 2962,4816 c -70,-14 -116,-46 -165,-114 -30,-41 -31,-45 -16,-70 8,-15 42,-41 78,-59 55,-29 72,-33 139,-33 101,0 146,14 195,59 57,53 53,74 -24,160 -72,80 -80,82 -207,57 z"
       id="path24" />
    <path
       d="m 1678,4809 c -26,-15 -108,-134 -108,-156 0,-44 103,-102 199,-110 65,-6 172,17 211,46 14,10 33,32 43,49 23,39 15,56 -56,130 l -51,52 h -111 c -60,0 -118,-5 -127,-11 z"
       id="path26" />
    <path
       d="m 5445,4414 c -33,-14 -211,-84 -395,-156 -184,-71 -341,-132 -347,-135 -10,-4 -13,-131 -13,-588 v -583 l 63,-25 c 34,-14 221,-89 415,-165 l 352,-140 v 909 c 0,500 -3,909 -7,909 -5,-1 -35,-12 -68,-26 z m -43,-206 c -2,-40 -5,-73 -6,-74 -10,-7 -577,-196 -591,-197 -17,-2 -20,4 -20,46 v 49 l 60,26 c 202,86 532,220 546,221 14,1 16,-9 11,-71 z"
       id="path28" />
    <path
       d="m 1555,4311 c -44,-11 -72,-31 -103,-75 l -27,-39 -3,-406 c -4,-487 8,-896 27,-927 8,-11 30,-31 49,-45 l 36,-24 920,-3 921,-3 45,40 45,39 9,652 c 9,734 12,695 -66,765 l -38,35 -893,-1 c -490,-1 -905,-4 -922,-8 z m 1028,-67 c 209,-54 364,-181 463,-379 112,-225 93,-499 -50,-699 -95,-133 -232,-235 -380,-282 -168,-53 -307,-40 -486,48 -90,44 -117,63 -191,137 -96,96 -144,175 -181,291 -30,98 -33,310 -4,405 31,104 85,193 174,286 67,71 99,96 171,133 49,25 113,52 142,60 75,20 265,20 342,0 z m -775,-56 c 3,-38 3,-38 -35,-38 -73,0 -114,-12 -130,-37 -9,-13 -21,-67 -28,-119 -13,-99 -21,-114 -61,-114 -30,0 -34,16 -34,140 0,103 1,110 27,141 50,59 78,70 173,67 l 85,-3 z m 1492,19 c 53,-19 109,-117 65,-117 -8,0 -47,13 -87,29 -40,15 -85,31 -100,35 -34,8 -57,44 -37,57 20,12 118,10 159,-4 z M 1565,3294 c 31,-12 45,-59 45,-158 0,-94 0,-94 33,-122 17,-15 56,-38 85,-50 86,-39 62,-74 -49,-74 -63,0 -63,0 -111,51 l -48,51 v 142 c 0,97 4,146 12,154 14,14 12,14 33,6 z"
       id="path30" />
    <path
       d="m 2296,4088 c 3,-40 7,-74 8,-74 0,-1 56,-4 123,-5 139,-4 133,-9 133,87 v 51 l -46,7 c -26,3 -87,6 -136,6 h -89 z"
       id="path32" />
    <path
       d="m 2058,4043 c -20,-21 -61,-71 -92,-112 -62,-84 -62,-85 10,-127 l 43,-26 88,92 c 49,51 89,99 91,107 4,14 -78,103 -95,103 -5,0 -25,-17 -45,-37 z"
       id="path34" />
    <path
       d="m 2675,4020 c -29,-29 -45,-53 -40,-58 6,-4 35,-29 65,-54 30,-25 66,-64 80,-87 14,-22 31,-41 39,-41 17,0 121,59 121,69 0,20 -187,221 -205,221 -6,0 -33,-22 -60,-50 z"
       id="path36" />
    <path
       d="m 2341,3900 c -68,-14 -128,-56 -176,-121 -60,-81 -79,-142 -73,-238 8,-126 81,-237 197,-295 43,-22 64,-26 139,-26 108,0 168,26 236,101 74,83 91,128 91,244 0,119 -17,164 -92,238 -86,86 -204,122 -322,97 z"
       id="path38" />
    <path
       d="m 1840,3571 v -151 l 33,1 c 17,0 49,3 70,7 l 39,7 2,133 c 2,149 9,136 -86,148 l -58,6 z"
       id="path40" />
    <path
       d="m 2925,3706 -50,-12 -3,-131 -3,-132 44,-6 c 94,-14 92,-17 95,128 2,118 -6,169 -26,166 -4,-1 -29,-7 -57,-13 z"
       id="path42" />
    <path
       d="m 1973,3330 c -68,-44 -74,-50 -63,-70 19,-36 162,-180 179,-180 9,0 26,7 39,15 21,16 22,15 16,-15 -4,-16 -3,-30 2,-30 7,0 49,62 62,93 2,4 -36,47 -85,95 -49,48 -93,94 -98,103 -9,15 -14,14 -52,-11 z"
       id="path44" />
    <path
       d="m 2787,3302 c -19,-26 -62,-70 -95,-97 -58,-47 -61,-52 -56,-85 3,-19 12,-47 21,-63 14,-27 15,-28 36,-13 12,9 36,22 54,30 54,25 183,167 183,202 0,15 -76,74 -96,74 -6,0 -28,-22 -47,-48 z"
       id="path46" />
    <path
       d="m 2296,3064 c -3,-26 -6,-59 -6,-74 v -28 l 94,-4 c 51,-2 112,-2 135,0 l 41,4 v 43 c 0,23 -3,57 -6,74 l -6,31 h -123 -122 z"
       id="path48" />
    <path
       d="m 4380,4029 c -91,-32 -215,-76 -277,-96 -106,-35 -112,-38 -117,-67 -3,-17 -9,-171 -12,-342 l -7,-310 54,-23 c 29,-13 119,-47 199,-77 162,-59 257,-95 313,-118 l 37,-16 v 555 c 0,438 -3,555 -12,554 -7,0 -87,-27 -178,-60 z"
       id="path50" />
    <path
       d="m 3590,3546 v -333 l 121,-8 c 66,-4 122,-5 123,-3 2,1 6,155 10,341 l 7,337 h -130 -131 z"
       id="path52" />
    <path
       d="m 1210,2723 v -448 l 38,-44 39,-45 35,27 c 66,51 119,45 182,-22 l 30,-31 h 196 196 l 42,43 42,43 -35,34 -35,33 -2,181 -3,181 -205,5 c -236,6 -267,15 -340,97 -52,59 -70,122 -70,239 0,50 -3,106 -6,123 -6,30 -9,31 -55,31 h -49 z"
       id="path54" />
    <path
       d="m 2055,2538 c 9,-200 1,-184 91,-192 95,-8 703,-6 799,3 l 70,6 3,163 2,162 h -486 -486 z m 151,55 c 12,-53 46,-99 90,-126 25,-15 44,-33 41,-40 -11,-36 -163,-7 -192,36 -15,25 -30,130 -20,146 3,6 22,11 40,11 29,0 36,-4 41,-27 z"
       id="path56" />
    <path
       d="m 3027,2079 c -4,-34 -7,-282 -7,-551 v -490 l 99,4 c 107,3 132,13 175,72 20,26 21,42 24,367 3,238 0,349 -7,368 -7,15 -72,87 -145,160 l -133,133 z"
       id="path58" />
  </g>
</svg>
