<?xml version="1.0" standalone="no"?>
<!DOCTYPE svg PUBLIC "-//W3C//DTD SVG 20010904//EN"
 "http://www.w3.org/TR/2001/REC-SVG-20010904/DTD/svg10.dtd">
<svg version="1.0" xmlns="http://www.w3.org/2000/svg"
 width="756.000000pt" height="744.000000pt" viewBox="0 0 756.000000 744.000000"
 preserveAspectRatio="xMidYMid meet">
<metadata>
Created by potrace 1.16, written by Peter Selinger 2001-2019
</metadata>
<g transform="translate(0.000000,744.000000) scale(0.100000,-0.100000)"
fill="#000000" stroke="none">
<path d="M0 3720 l0 -3720 3780 0 3780 0 0 3720 0 3720 -3780 0 -3780 0 0
-3720z m2320 2901 c149 -47 306 -163 385 -282 53 -80 99 -182 110 -242 l7 -37
28 80 c81 234 259 403 504 479 137 42 320 25 456 -44 175 -88 302 -228 368
-407 25 -67 27 -85 27 -228 0 -135 -3 -163 -23 -220 -59 -172 -187 -310 -363
-395 -82 -39 -80 -40 62 -49 105 -6 162 -30 228 -96 25 -25 59 -73 75 -106 27
-54 30 -70 34 -184 l4 -125 189 -3 c166 -3 196 -1 253 17 36 11 80 28 98 37
47 25 486 170 555 184 32 7 67 17 78 24 11 7 34 16 50 20 17 4 92 32 167 62
76 30 140 54 143 54 3 0 47 16 98 36 168 65 571 224 655 258 45 19 84 31 87
27 2 -5 5 -570 5 -1257 l1 -1249 -23 3 c-13 2 -70 24 -128 49 -58 24 -184 73
-280 108 -96 35 -227 84 -290 110 -63 26 -125 51 -136 55 -18 7 -22 5 -22 -13
0 -12 -3 -169 -5 -349 l-4 -327 226 0 226 0 20 32 c30 48 96 80 146 72 71 -12
129 -79 129 -150 0 -73 -53 -134 -124 -142 -66 -8 -96 3 -141 51 l-40 43 -155
-6 c-184 -8 -335 -7 -370 3 l-25 7 0 397 c0 329 2 399 14 408 14 11 14 11
-191 93 -42 17 -81 31 -87 31 -6 0 -10 -199 -10 -565 0 -311 -3 -576 -6 -590
-3 -14 -7 -36 -10 -50 -4 -20 -11 -25 -35 -25 -16 0 -32 6 -37 13 -10 16 -25
1002 -17 1130 6 88 9 99 28 107 11 5 19 9 16 10 -3 0 -50 16 -105 34 -55 19
-100 34 -100 33 0 -1 1 -402 3 -892 l2 -890 31 -17 c35 -21 59 -71 59 -127 0
-81 -43 -141 -115 -161 -54 -15 -83 -9 -126 27 -79 66 -79 183 0 257 l31 30 0
892 c0 659 3 895 11 900 18 11 -23 28 -187 79 l-149 47 -201 2 -202 2 -4 -131
c-5 -151 -16 -182 -85 -245 -77 -72 -117 -84 -285 -88 l-146 -4 -4 -215 -3
-215 -45 -42 -46 -41 73 -64 c68 -59 76 -63 99 -52 33 15 44 14 44 -4 0 -9
-10 -15 -26 -15 -14 0 -24 -4 -22 -9 2 -6 36 -44 77 -86 52 -55 77 -73 84 -66
14 14 27 14 27 1 0 -5 -7 -10 -15 -10 -22 0 -19 -7 34 -74 l50 -62 3 -270 c1
-148 -2 -337 -6 -421 l-9 -152 47 -43 48 -43 137 3 137 3 13 29 c15 36 85 70
143 70 48 0 87 -20 122 -60 21 -26 26 -42 26 -88 0 -40 -6 -66 -20 -86 -26
-40 -87 -76 -130 -76 -49 1 -115 33 -136 67 -10 15 -23 31 -28 35 -6 4 -68 6
-139 4 l-128 -2 -22 -38 c-33 -58 -69 -81 -128 -81 -47 0 -53 3 -95 48 l-45
47 -183 0 -183 0 -7 37 c-3 21 -6 357 -6 746 l0 708 -62 -3 -63 -3 -6 -465
c-3 -256 -3 -645 0 -864 l6 -399 29 -17 c93 -51 109 -184 32 -268 -32 -34 -38
-36 -94 -37 -73 0 -106 20 -139 85 -37 72 -26 145 30 200 l25 25 -7 870 -6
870 -92 3 -92 3 0 -684 0 -684 30 -22 c60 -44 77 -141 37 -201 -13 -18 -39
-46 -59 -62 l-36 -29 -68 23 c-81 27 -106 55 -112 125 -6 61 23 125 67 148
l30 16 0 608 c0 334 -3 643 -7 685 l-6 77 -66 -3 -66 -3 -5 -502 -5 -503 -31
-31 -31 -31 -276 2 -276 1 -19 -44 c-37 -83 -148 -106 -217 -46 -46 41 -65 78
-65 128 0 33 7 49 36 80 49 55 89 67 157 47 36 -10 60 -25 75 -45 l22 -30 254
2 c140 1 257 5 261 8 7 8 7 948 -1 960 -3 5 -26 6 -52 3 -38 -5 -56 -15 -95
-53 -79 -75 -82 -84 -83 -260 -2 -148 -1 -155 21 -175 35 -33 55 -81 55 -131
0 -56 -18 -92 -66 -135 -35 -30 -41 -32 -99 -28 -64 4 -82 13 -166 90 -34 31
-36 44 -9 53 13 4 20 15 20 33 0 48 41 105 94 131 l48 24 -7 121 c-3 67 -9
129 -11 139 -5 15 -25 17 -229 17 l-223 0 -20 -34 c-41 -70 -126 -95 -198 -58
-52 26 -70 48 -84 102 -13 51 -34 77 -105 128 -27 20 -53 41 -58 47 -4 5 -6
251 -5 546 l3 537 -59 6 c-32 3 -127 6 -211 6 l-152 0 -7 -159 c-3 -87 -4
-164 -1 -172 3 -8 18 -21 33 -30 57 -33 81 -148 45 -211 -34 -58 -118 -83
-186 -54 -44 18 -97 80 -97 114 0 70 33 136 76 152 20 8 21 17 28 232 4 122
10 225 13 228 2 3 149 5 326 6 177 0 344 1 371 2 l49 2 -7 488 c-7 554 -3 615
47 701 50 83 159 157 252 169 32 4 60 12 62 17 2 6 -19 19 -46 29 -69 25 -190
106 -259 175 -42 43 -72 86 -105 153 -158 318 -67 671 224 869 80 54 196 108
256 119 76 14 239 4 313 -19z m2453 -650 c32 -39 41 -79 27 -128 -17 -62 -47
-88 -118 -104 -108 -24 -216 97 -168 190 11 20 13 32 5 36 -11 8 78 53 126 65
37 8 92 -17 128 -59z m934 -114 c45 -30 63 -67 63 -128 0 -41 -6 -62 -31 -101
l-31 -48 -67 0 -66 0 -37 46 c-34 42 -38 53 -38 103 0 64 18 97 71 137 40 29
83 27 136 -9z m-4763 -1087 c14 -5 39 -28 56 -51 50 -70 37 -169 -29 -220 -17
-13 -45 -35 -61 -48 l-30 -23 -39 33 c-22 19 -51 42 -66 53 -38 26 -58 80 -50
132 15 100 122 161 219 124z m3756 -1840 c0 -5 -8 -7 -17 -3 -10 3 0 -8 23
-24 69 -52 84 -78 84 -146 0 -59 -1 -62 -45 -104 -39 -36 -45 -48 -45 -82 0
-28 5 -43 18 -50 16 -9 16 -11 -2 -24 -15 -11 -17 -20 -11 -43 10 -38 10 -102
1 -136 -4 -14 -3 -35 3 -46 6 -11 7 -23 3 -27 -4 -3 -7 -56 -7 -116 l0 -110
-36 -32 c-20 -18 -64 -64 -98 -104 -70 -81 -133 -123 -185 -123 -53 0 -47 26
27 106 34 38 78 89 97 114 19 25 47 56 63 68 l27 24 0 268 0 269 -45 31 c-25
17 -49 39 -55 50 -13 24 -13 111 0 144 12 32 73 73 123 81 20 4 37 11 37 16 0
5 9 9 20 9 11 0 20 -4 20 -10z m-3535 -419 c3 -5 -4 -12 -15 -16 -11 -3 -20
-9 -20 -13 0 -4 26 -22 56 -41 69 -41 85 -73 74 -150 -6 -45 -13 -60 -43 -88
-32 -28 -44 -33 -88 -33 -97 0 -159 57 -159 145 0 77 29 112 113 139 11 3 17
16 17 36 0 27 3 30 29 30 17 0 32 -4 36 -9z m4636 -437 c57 -29 79 -61 79
-118 0 -88 -31 -131 -107 -146 -97 -21 -164 18 -184 105 -10 46 -10 59 4 88
18 38 33 52 86 83 40 24 54 23 122 -12z"/>
<path d="M2035 6499 c-69 -16 -149 -62 -159 -90 -14 -41 -1 -70 60 -138 l57
-62 145 3 144 3 46 50 c25 28 56 67 70 88 35 52 22 76 -64 118 -60 30 -77 34
-163 36 -53 1 -114 -2 -136 -8z"/>
<path d="M3435 6497 c-61 -16 -124 -48 -148 -75 -25 -28 -16 -68 29 -120 55
-64 89 -80 198 -92 54 -6 110 -8 126 -5 34 8 118 95 144 150 26 54 11 79 -68
116 -76 36 -199 47 -281 26z"/>
<path d="M2509 6221 c-24 -15 -62 -44 -83 -63 l-39 -34 -1 -153 -2 -153 37
-37 c21 -20 60 -49 88 -65 46 -24 54 -26 78 -14 109 52 138 315 53 481 -38 75
-62 82 -131 38z"/>
<path d="M3063 6223 c-70 -76 -106 -221 -84 -339 6 -37 21 -84 31 -104 23 -45
86 -100 115 -100 20 0 123 81 156 124 15 19 17 43 17 169 l-1 146 -31 29 c-59
56 -129 102 -153 102 -13 0 -35 -12 -50 -27z"/>
<path d="M3915 6235 c-17 -9 -59 -42 -94 -74 l-63 -59 8 -53 c4 -30 7 -93 6
-140 l-2 -86 48 -47 c55 -54 115 -96 135 -96 47 0 99 86 118 194 19 113 -19
289 -77 351 -27 29 -38 30 -79 10z"/>
<path d="M1674 6226 c-30 -21 -74 -125 -86 -203 -20 -129 25 -278 96 -323 42
-25 47 -23 136 51 85 70 90 81 79 154 -7 39 -6 82 1 129 10 66 10 70 -12 93
-28 31 -160 113 -179 113 -8 0 -24 -6 -35 -14z"/>
<path d="M2070 6107 c-89 -47 -112 -152 -54 -240 64 -97 207 -85 262 23 12 24
22 58 22 75 0 45 -40 116 -79 142 -44 29 -96 29 -151 0z"/>
<path d="M3418 6103 c-12 -29 -16 -288 -5 -299 3 -3 50 9 104 27 127 42 168
78 160 142 -4 34 -14 50 -51 82 -46 41 -123 75 -170 75 -19 0 -30 -7 -38 -27z"/>
<path d="M2825 5795 c-5 -16 -27 -71 -50 -121 -68 -146 -203 -274 -365 -344
-30 -13 -59 -27 -64 -31 -20 -17 155 -24 549 -23 269 0 427 4 438 11 16 8 10
13 -42 33 -94 35 -210 111 -282 187 -67 69 -123 163 -159 268 l-18 50 -7 -30z"/>
<path d="M2009 5714 c-38 -20 -139 -155 -139 -186 0 -54 111 -118 231 -132 71
-9 189 15 240 48 20 14 47 41 59 62 23 36 23 37 6 69 -10 18 -43 58 -75 89
l-57 57 -120 3 c-87 3 -127 0 -145 -10z"/>
<path d="M3475 5712 c-65 -14 -75 -20 -132 -79 -64 -64 -84 -104 -66 -132 20
-32 96 -81 151 -97 73 -22 209 -15 272 13 58 25 110 84 110 123 0 24 -16 47
-78 110 l-77 80 -55 -1 c-30 -1 -86 -9 -125 -17z"/>
<path d="M6365 5241 c-49 -21 -128 -52 -175 -70 -47 -18 -134 -52 -195 -76
-60 -24 -153 -59 -205 -79 -52 -19 -138 -52 -190 -73 l-95 -39 -3 -677 -2
-676 27 -14 c16 -8 78 -33 138 -55 61 -22 205 -79 320 -125 116 -47 272 -110
348 -140 l137 -55 0 1059 c0 583 -3 1059 -7 1058 -5 -1 -48 -18 -98 -38z m-29
-163 c-3 -13 -6 -53 -6 -89 l0 -66 -67 -21 c-106 -32 -511 -171 -581 -199 -35
-14 -65 -23 -66 -21 -2 1 -6 29 -8 60 l-5 57 121 52 c67 29 175 74 241 100 66
26 174 70 240 98 66 27 124 50 129 50 4 1 6 -9 2 -21z m-42 -430 c37 -53 3
-138 -55 -138 -22 0 -34 8 -49 33 -27 44 -25 73 6 102 34 32 78 33 98 3z"/>
<path d="M1825 5121 c-48 -22 -99 -76 -114 -124 -9 -25 -11 -235 -9 -763 4
-804 1 -771 67 -827 17 -14 48 -31 69 -37 24 -6 394 -10 1083 -10 l1046 0 39
29 c22 15 49 41 59 57 19 28 20 53 23 784 l2 756 -23 44 c-13 25 -43 60 -66
78 l-43 32 -1046 0 c-991 0 -1049 -1 -1087 -19z m1235 -72 c157 -43 312 -135
396 -236 156 -185 219 -350 217 -568 -1 -142 -28 -248 -95 -378 -50 -97 -170
-227 -268 -292 -261 -173 -533 -189 -803 -47 -111 58 -184 117 -265 212 -122
146 -182 313 -182 513 0 67 7 151 16 195 29 148 114 292 244 416 65 62 101 87
183 127 140 67 187 78 347 78 108 1 151 -3 210 -20z m-935 -18 c27 -6 30 -10
30 -46 l0 -40 -82 -6 c-46 -3 -90 -12 -98 -19 -32 -26 -45 -70 -51 -169 -4
-56 -12 -105 -18 -110 -6 -4 -27 -11 -47 -15 l-36 -6 -6 67 c-11 109 -8 201 7
236 16 40 77 95 114 103 15 3 32 7 37 9 17 6 118 3 150 -4z m1775 -26 c35 -18
80 -81 80 -112 0 -32 -33 -30 -111 7 -35 16 -86 35 -115 41 -51 12 -63 24 -64
67 0 19 172 16 210 -3z m-1998 -1095 c14 -27 18 -60 18 -144 l0 -108 38 -38
c20 -20 60 -45 87 -55 62 -22 78 -36 69 -59 -9 -24 -46 -36 -113 -36 -71 0
-112 24 -158 94 l-33 48 0 150 c0 87 4 158 11 169 17 33 60 21 81 -21z"/>
<path d="M2714 4898 c3 -29 6 -69 6 -88 l0 -35 116 3 c64 2 129 -1 145 -7 33
-11 34 -10 44 100 l5 66 -46 7 c-26 3 -99 6 -162 6 l-115 0 7 -52z"/>
<path d="M2441 4817 c-73 -77 -172 -210 -169 -225 2 -8 32 -31 67 -50 l64 -36
16 25 c8 13 55 64 104 114 l89 89 -18 34 c-15 28 -90 92 -108 92 -3 0 -23 -19
-45 -43z"/>
<path d="M3156 4790 l-58 -60 61 -45 c52 -38 141 -135 141 -153 0 -4 4 -13 9
-20 6 -11 25 -4 84 29 l77 43 -19 30 c-36 56 -204 236 -221 236 -9 0 -43 -27
-74 -60z"/>
<path d="M2734 4641 c-63 -21 -101 -48 -154 -109 -117 -132 -139 -311 -58
-464 39 -73 121 -151 195 -186 51 -24 70 -27 153 -27 76 1 105 5 143 22 101
46 195 151 230 257 23 68 22 179 -3 259 -33 105 -142 213 -254 250 -64 22
-185 21 -252 -2z"/>
<path d="M2185 4327 c-4 -63 -4 -143 0 -177 l7 -62 57 6 c31 4 68 9 82 12 l26
5 -5 102 c-2 56 0 125 5 154 11 58 17 55 -103 68 l-62 7 -7 -115z"/>
<path d="M3444 4422 l-62 -15 2 -152 1 -153 72 -7 c40 -4 77 -4 83 0 11 7 14
207 4 293 -8 59 -5 58 -100 34z"/>
<path d="M2360 3999 c-14 -11 -42 -29 -62 -40 -21 -10 -38 -26 -38 -33 0 -29
192 -236 218 -236 9 0 26 10 39 22 23 22 47 18 25 -4 -17 -17 -15 -45 3 -52
12 -4 21 7 13 17 -1 1 12 23 30 49 18 26 32 53 32 60 0 7 -23 28 -51 47 -54
37 -145 131 -162 168 -12 28 -15 28 -47 2z"/>
<path d="M3302 3972 c-29 -45 -79 -96 -166 -167 l-36 -30 21 -68 c11 -37 26
-67 33 -67 6 0 23 11 38 25 15 14 36 25 46 25 25 0 99 66 160 143 74 93 74 98
3 146 -33 23 -62 41 -64 41 -2 0 -18 -22 -35 -48z"/>
<path d="M2724 3729 c-2 -3 -6 -42 -10 -86 l-7 -81 107 -7 c98 -7 202 -4 210
6 1 2 0 42 -3 88 l-6 84 -143 1 c-79 1 -146 -2 -148 -5z"/>
<path d="M5340 4871 c-13 -8 -360 -129 -590 -206 l-65 -22 -10 -139 c-6 -76
-11 -253 -10 -393 l0 -255 33 -19 c18 -10 99 -43 180 -72 167 -60 328 -120
420 -158 l62 -26 0 650 c0 357 -1 649 -2 649 -2 0 -10 -5 -18 -9z"/>
<path d="M4220 4241 l0 -388 83 -6 c45 -4 111 -7 147 -7 l65 0 3 395 3 395
-150 0 -151 0 0 -389z"/>
<path d="M1452 3282 l4 -519 38 -51 c21 -29 41 -52 45 -52 5 0 25 14 46 30 74
59 136 53 205 -18 l45 -47 227 2 228 2 49 48 50 48 -42 43 -42 43 -4 209 -3
210 -217 0 c-242 0 -281 7 -361 61 -52 35 -104 105 -125 167 -9 26 -15 95 -17
191 l-3 151 -63 0 -64 0 4 -518z"/>
<path d="M2433 3144 c4 -54 7 -138 7 -186 0 -65 4 -90 16 -102 14 -14 76 -16
537 -16 287 0 532 3 545 6 22 6 22 8 22 195 l0 189 -549 0 c-302 0 -557 3
-567 7 -16 6 -17 -1 -11 -93z m164 16 c7 0 15 -17 19 -37 13 -74 45 -114 122
-152 48 -25 50 -41 6 -53 -72 -19 -194 23 -213 75 -5 12 -11 54 -15 94 -8 77
-1 87 49 77 11 -2 25 -4 32 -4z"/>
<path d="M3567 2564 c-3 -27 -7 -317 -9 -644 l-3 -595 118 3 c129 2 127 2 182
51 37 33 38 35 46 125 4 50 8 238 10 418 1 315 1 328 -19 360 -12 18 -88 100
-170 182 l-150 149 -5 -49z"/>
</g>
</svg>
